<?xml version="1.0" standalone="no"?>
<!DOCTYPE svg PUBLIC "-//W3C//DTD SVG 20010904//EN"
 "http://www.w3.org/TR/2001/REC-SVG-20010904/DTD/svg10.dtd">
<svg version="1.0" xmlns="http://www.w3.org/2000/svg"
 width="151.000000pt" height="145.000000pt" viewBox="0 0 151.000000 145.000000"
 preserveAspectRatio="xMidYMid meet">

<g transform="translate(0.000000,145.000000) scale(0.100000,-0.100000)"
fill="#000000" stroke="none">
<path d="M129 1443 c0 -5 0 -38 1 -75 l1 -68 -65 0 -66 0 0 -29 c0 -28 3 -30
38 -29 20 1 52 0 70 -1 l34 -1 -3 -172 c-3 -161 -12 -228 -31 -228 -4 0 -8 -5
-8 -11 0 -5 5 -7 11 -3 8 5 8 1 0 -14 -8 -15 -8 -22 2 -25 6 -3 3 -5 -8 -5
-11 0 -29 -3 -40 -6 -11 -2 -30 -5 -42 -5 -19 -1 -23 -7 -23 -31 0 -32 -3 -32
123 -33 l27 0 0 -164 0 -163 -75 0 -75 0 0 -76 0 -76 61 6 c34 3 63 7 66 10 3
2 13 48 23 100 11 53 22 102 27 109 4 6 10 64 13 127 l5 115 27 3 c23 3 30 11
40 45 7 23 16 44 20 47 4 4 11 20 14 38 5 26 3 32 -10 32 -10 0 -14 4 -11 10
3 6 -1 7 -9 4 -9 -3 -16 -11 -16 -18 0 -6 -4 -5 -9 3 -13 21 -31 3 -31 -31 0
-17 -3 -28 -7 -24 -7 6 -6 437 1 443 1 1 47 5 101 9 55 3 103 8 107 10 4 3 11
-3 16 -12 6 -11 11 -13 16 -5 4 6 17 11 29 11 28 1 73 25 60 33 -5 3 -81 5
-168 4 l-160 -1 -3 77 -3 77 -34 0 c-19 0 -35 -3 -36 -7z"/>
<path d="M1110 1375 c0 -53 -4 -75 -12 -76 -36 -2 -116 -7 -140 -8 -16 -1 -28
-6 -28 -12 0 -7 11 -9 30 -6 16 4 31 3 34 -2 3 -4 29 -9 58 -10 28 -1 53 -3
54 -4 3 -3 7 -115 5 -144 0 -13 -7 -23 -16 -23 -9 0 -12 -6 -9 -17 3 -10 -5
-4 -17 12 -56 73 -126 137 -174 160 -53 26 -192 49 -197 33 -2 -5 -17 -9 -35
-11 -17 -1 -30 -4 -27 -6 2 -2 -16 -16 -39 -31 -23 -14 -60 -47 -82 -72 -47
-53 -134 -206 -172 -302 -15 -37 -30 -63 -36 -59 -6 4 -8 0 -4 -10 3 -10 2
-17 -3 -17 -6 0 -9 -3 -8 -7 0 -5 -1 -15 -4 -23 -27 -82 -28 -82 -11 -68 15
11 16 11 10 -5 -4 -10 -7 -21 -7 -23 0 -3 -6 -2 -12 2 -10 5 -10 4 -1 -6 9
-10 9 -21 -2 -49 -8 -20 -19 -63 -25 -96 -21 -107 -71 -299 -96 -365 l-24 -65
6 49 c5 35 3 51 -7 57 -10 6 -11 9 -1 9 6 0 12 7 12 15 0 12 -14 15 -65 15
l-65 0 0 -105 0 -105 49 0 c45 0 49 2 59 33 l11 32 -5 -33 -6 -32 701 0 701 0
0 74 c0 63 -3 75 -17 79 -17 4 -17 5 0 6 16 1 17 39 17 640 l0 640 -61 -3
c-38 -2 -64 -8 -70 -17 -5 -8 -9 -10 -9 -6 0 4 -10 3 -22 -4 -19 -10 -19 -12
-5 -21 10 -5 22 -6 27 -3 15 9 12 -4 -4 -21 -8 -8 -24 -14 -35 -14 -25 0 -33
-12 -19 -30 8 -12 9 -11 4 4 -5 16 -4 17 9 6 26 -22 6 -30 -76 -30 l-79 0 0
75 0 75 -30 0 -30 0 0 -75z m303 -134 c15 -1 2 -162 -14 -172 -8 -5 -9 -9 -4
-9 6 0 10 -11 10 -25 0 -14 -3 -25 -7 -25 -4 0 -10 -9 -13 -20 -14 -44 -25
-15 -25 65 l0 85 -44 0 c-52 0 -51 1 -61 -145 -7 -118 -17 -193 -22 -177 -3 6
-8 10 -12 7 -14 -8 -40 163 -47 299 l-7 128 119 -5 c65 -3 123 -6 127 -6z
m-638 -100 c16 -9 38 -32 48 -51 19 -35 19 -35 0 -11 l-20 23 2 -33 c1 -19 5
-45 8 -59 5 -16 0 -11 -13 13 -11 20 -25 37 -30 37 -12 0 -25 -89 -14 -100 5
-5 19 -11 31 -13 29 -4 45 -20 18 -17 -45 5 -75 -1 -75 -14 0 -17 21 -26 68
-27 25 -1 29 -3 14 -6 -15 -3 -22 -10 -18 -19 4 -10 -2 -14 -19 -14 -37 0 -30
-20 8 -22 l32 -1 -32 -4 c-32 -4 -33 -6 -33 -51 0 -26 -3 -57 -6 -69 -9 -32
12 -29 31 5 15 26 16 26 9 2 -7 -27 -7 -29 -5 -47 2 -20 19 -15 26 8 4 11 9
18 12 16 9 -10 -47 -105 -80 -134 -72 -63 -171 -46 -220 38 -82 139 -74 385
15 493 65 79 164 102 243 57z m675 -331 c0 -5 -4 -10 -10 -10 -5 0 -10 5 -10
10 0 6 5 10 10 10 6 0 10 -4 10 -10z m-7 -587 c-13 -2 -35 -2 -50 0 -16 2 -5
4 22 4 28 0 40 -2 28 -4z m16 -69 c2 -2 -12 -4 -32 -4 -20 0 -37 4 -37 10 0 8
58 3 69 -6z"/>
<path d="M560 1038 c-26 -42 -25 -48 4 -48 16 0 26 7 30 23 16 62 -3 76 -34
25z"/>
<path d="M515 939 c-11 -17 15 -30 55 -27 23 2 35 8 35 18 0 19 -79 27 -90 9z"/>
<path d="M533 853 c9 -2 23 -2 30 0 6 3 -1 5 -18 5 -16 0 -22 -2 -12 -5z"/>
<path d="M528 834 c-6 -6 -2 -52 9 -94 6 -25 6 -25 13 5 13 52 11 95 -3 95 -8
0 -16 -3 -19 -6z"/>
<path d="M570 631 c0 -15 28 -21 91 -21 57 0 77 11 43 24 -24 9 -134 7 -134
-3z"/>
<path d="M625 579 c-15 -6 -11 -8 19 -8 22 -1 36 2 32 6 -10 10 -29 11 -51 2z"/>
<path d="M640 1340 c0 -5 7 -10 15 -10 8 0 15 5 15 10 0 6 -7 10 -15 10 -8 0
-15 -4 -15 -10z"/>
<path d="M545 1327 c-4 -10 -3 -23 4 -30 16 -16 26 0 14 25 -10 21 -11 22 -18
5z"/>
<path d="M296 882 c-3 -5 1 -9 9 -9 8 0 12 4 9 9 -3 4 -7 8 -9 8 -2 0 -6 -4
-9 -8z"/>
</g>
</svg>
